<svg xmlns="http://www.w3.org/2000/svg" width="320" height="96" viewBox="0 0 320 96" role="img" aria-labelledby="title">
  <title>Infinity Fusion</title>
  <path d="M42 48c10-18 30-28 52-28 14 0 28 4 38 12-12-3-22-4-31-4-18 0-32 7-41 20 9 13 23 20 41 20 9 0 19-1 31-4-10 8-24 12-38 12-22 0-42-10-52-28zm104 0c10-18 30-28 52-28 14 0 28 4 38 12-12-3-22-4-31-4-18 0-32 7-41 20 9 13 23 20 41 20 9 0 19-1 31-4-10 8-24 12-38 12-22 0-42-10-52-28z" fill="#00f3ff"/>
  <text x="160" y="84" text-anchor="middle" fill="#f5fbff" font-size="21" font-family="Rajdhani, Arial, sans-serif" letter-spacing="4">INFINITY FUSION</text>
</svg>
